<svg width="140" height="140" viewBox="0 0 140 140" fill="none" xmlns="http://www.w3.org/2000/svg">
<g clip-path="url(#clip0_948_2947)">
<path d="M64.4331 20.4102C46.3862 22.5781 30.9565 34.1406 24.0229 50.7031C22.48 54.4141 21.5034 57.7734 20.7612 62.0898C19.8432 67.3828 20.1948 78.5547 21.3081 79.668C21.7573 80.1367 22.6753 80.0391 23.0268 79.4922C23.3003 79.082 23.3003 78.8477 22.9878 77.1094C22.4995 74.2773 22.4995 65.8789 22.9878 62.8711C23.8276 57.8125 25.1557 53.6719 27.3237 49.1992C31.9917 39.6289 39.5698 32.0117 48.9839 27.4219C53.5346 25.2148 57.2456 24.0039 62.3823 23.0859C65.7026 22.4805 73.8081 22.4414 77.0893 22.9883C82.4018 23.8867 86.855 25.3125 91.2885 27.5586C95.1167 29.4922 94.8823 29.2383 94.4917 30.7617C93.8471 33.2617 94.6674 35.9375 96.5815 37.6562C99.1987 40 103.281 40.0195 105.878 37.6758C109.628 34.3164 108.71 28.2422 104.121 26.1328C103.085 25.6445 102.656 25.5664 101.249 25.5664C99.8432 25.5664 99.4135 25.6445 98.4174 26.1133C97.7729 26.4258 97.0307 26.875 96.7573 27.1289L96.269 27.5781L94.2182 26.4258C89.3354 23.6719 83.9057 21.7773 77.9292 20.7617C75.2143 20.293 67.1675 20.0781 64.4331 20.4102Z" fill="white" fill-opacity="0.5"/>
<path d="M68.8274 33.6914C68.5735 33.7891 67.2649 34.6094 65.8977 35.5078C56.8157 41.582 47.3626 45.1758 39.6282 45.5078C36.5032 45.6445 35.6048 45.8594 34.7844 46.6602C33.6907 47.7344 33.593 48.2617 33.7298 52.9102C34.1594 67.0508 37.4016 78.2617 43.8665 87.9102C49.1985 95.8984 57.2258 102.891 66.8157 107.93C70.0774 109.648 70.3704 109.609 75.3704 106.758C84.0422 101.816 91.2688 95.2148 96.3079 87.6758C102.616 78.1836 105.839 66.875 106.269 52.6953C106.386 48.6914 106.366 48.5352 105.956 47.6562C105.644 47.0117 105.253 46.6016 104.628 46.2305C103.827 45.7617 103.476 45.7031 100.976 45.5664C97.7141 45.4102 95.5657 45.0391 92.1477 44.1211C86.4641 42.5586 79.9993 39.4922 74.2962 35.6445C72.9485 34.7461 71.5813 33.8867 71.2297 33.75C70.5071 33.4375 69.5305 33.418 68.8274 33.6914ZM73.2024 53.3984C77.0501 54.7266 79.3352 58.0664 79.3743 62.3828C79.3938 63.4375 79.3938 63.457 80.2532 63.9844C80.7219 64.2578 81.386 64.8828 81.718 65.332C82.8508 66.9141 82.9094 67.4219 82.8508 75.5078C82.7922 82.4414 82.7727 82.832 82.3821 83.6914C81.7766 84.9805 80.8587 85.918 79.6087 86.543L78.4954 87.0898H69.9993H61.5032L60.3899 86.543C59.1399 85.918 58.2219 84.9805 57.6165 83.6914C57.2258 82.832 57.2063 82.4414 57.1477 75.5078C57.0891 67.4219 57.1477 66.9141 58.2805 65.332C58.6126 64.8828 59.2766 64.2578 59.7454 63.9844L60.6048 63.457L60.6243 62.2852C60.6633 57.5391 63.4954 54.0234 68.1438 53.0078C69.3352 52.7344 71.9133 52.9297 73.2024 53.3984Z" fill="white"/>
<path d="M67.9092 55.4297C65.0576 56.3672 63.2803 58.5938 63.0264 61.6016L62.9092 62.9688H69.9795H77.0303V62.1289C77.0107 58.2812 74.1787 55.3711 70.292 55.2148C69.335 55.1758 68.417 55.2734 67.9092 55.4297Z" fill="white"/>
<path d="M68.6709 69.6094C68.0068 70.0195 67.46 70.9961 67.46 71.7773C67.46 71.9922 67.5967 72.4805 67.7725 72.8516C68.085 73.4961 68.0654 73.6719 67.5771 76.1133C66.9131 79.4336 66.9131 80.0195 67.5771 80.5273C68.0264 80.8789 68.3779 80.9375 69.999 80.9375C71.6201 80.9375 71.9717 80.8789 72.4209 80.5273C73.085 80.0195 73.085 79.4336 72.4209 76.1133C71.9326 73.6719 71.9131 73.4961 72.2256 72.8516C72.6162 72.0312 72.6162 71.543 72.2646 70.6836C71.9131 69.8633 70.917 69.2187 69.999 69.2187C69.6279 69.2187 69.0225 69.3945 68.6709 69.6094Z" fill="white"/>
<path d="M116.581 57.8906C116.19 58.3203 116.21 58.5352 116.894 62.2852C117.304 64.5508 117.362 65.3906 117.343 70C117.343 75.8398 117.089 77.8711 115.8 82.5977C111.522 98.125 99.5498 110.527 84.1201 115.371C79.5303 116.836 75.1943 117.461 69.8623 117.461C62.1084 117.461 55.5264 115.898 48.5732 112.402C46.21 111.23 41.4834 108.223 41.4834 107.91C41.4834 107.812 41.7178 107.246 41.9912 106.641C43.085 104.258 42.7334 101.055 41.1514 98.9453C40.1943 97.6953 39.4131 97.0508 38.0654 96.4453C34.1982 94.668 29.5889 96.3281 27.6943 100.176C27.167 101.25 27.1279 101.523 27.1279 103.496C27.1279 105.43 27.1865 105.762 27.6553 106.777C28.749 109.102 30.9951 110.82 33.5146 111.25C35.292 111.562 36.7764 111.309 38.4756 110.43C39.2764 110.02 39.96 109.766 40.0186 109.844C40.292 110.273 44.9404 113.164 47.4014 114.434C52.8506 117.227 58.7686 119.004 64.8818 119.629C68.417 120 74.96 119.766 78.3975 119.16C94.2959 116.348 107.694 106.309 114.726 91.9727C116.952 87.4023 118.3 83.2227 119.237 77.9102C119.765 74.9023 119.96 68.3594 119.628 65C119.354 62.3633 118.71 58.7891 118.397 58.1836C117.968 57.4023 117.147 57.2656 116.581 57.8906Z" fill="white" fill-opacity="0.5"/>
</g>
<defs>
<clipPath id="clip0_948_2947">
<rect width="100" height="100" fill="white" transform="translate(20 20)"/>
</clipPath>
</defs>
</svg>
