<svg width="140" height="140" viewBox="0 0 140 140" fill="none" xmlns="http://www.w3.org/2000/svg">
<path d="M68.1237 22.1385C65.3467 22.8425 63.7039 24.9938 63.5279 28.1619C63.3715 31.1346 64.2906 33.9116 66.0116 35.6326C67.3415 36.9429 68.1629 37.2949 70.0403 37.2949C71.9177 37.2949 72.7391 36.9429 74.069 35.6326C75.79 33.9116 76.7091 31.1346 76.5527 28.1619C76.3962 25.4044 75.1837 23.4879 72.9934 22.5101C71.8982 22.0407 69.3363 21.8451 68.1237 22.1385Z" fill="white"/>
<path d="M65.5807 39.2506C60.144 40.0329 56.8976 41.5778 55.8415 43.9247C55.509 44.6482 55.4699 45.3132 55.4895 51.3758C55.4895 56.304 55.5482 58.1033 55.7242 58.3184C56.35 59.1202 56.8976 59.2962 58.7359 59.2962H60.5547V53.9377C60.5547 49.1267 60.5938 48.54 60.9067 48.1685C61.4543 47.5035 62.3343 47.4449 63.0188 48.012L63.586 48.5009L63.6446 53.8986L63.7033 59.2962H70.0397H76.376L76.4347 53.8986L76.4934 48.5009L77.0605 48.012C77.745 47.4449 78.6251 47.5035 79.1922 48.1685C79.4856 48.54 79.5247 49.1267 79.5247 53.9377V59.2962H81.2848C82.4386 59.2962 83.26 59.1984 83.5925 59.0224C84.6681 58.4748 84.7072 58.2206 84.7072 51.5909C84.7072 48.2467 84.6485 45.1958 84.5507 44.8047C84.1792 42.9859 82.2626 41.2649 79.6616 40.3849C76.1218 39.1919 69.629 38.6639 65.5807 39.2506Z" fill="white"/>
<path d="M68.1824 73.8464V79.7916L62.2763 83.5661C59.0299 85.6586 56.3115 87.3992 56.2333 87.4579C56.1551 87.5165 56.4484 88.1423 56.9178 88.8659L57.7392 90.1762L63.6844 86.3627C66.9699 84.2897 69.7079 82.5687 69.7665 82.5687C69.8252 82.5687 72.5436 84.2897 75.8291 86.3822L81.7548 90.1762L82.5957 88.8659C83.0455 88.1423 83.3584 87.497 83.2802 87.4383C83.202 87.3796 80.4836 85.6195 77.2372 83.5465L71.3115 79.7916V73.8464V67.9012H69.747H68.1824V73.8464Z" fill="white"/>
<path d="M36.5008 81.8451C33.7042 82.6274 32.2179 84.6808 32.0419 87.9468C31.8854 90.8607 32.785 93.4618 34.506 95.2414C37.5373 98.3314 41.9376 97.4318 44.0302 93.3053C45.2231 90.9781 45.4578 87.2623 44.5386 85.1893C43.991 83.9377 42.759 82.7251 41.5073 82.158C40.3144 81.63 37.7916 81.4735 36.5008 81.8451Z" fill="white" fill-opacity="0.5"/>
<path d="M99.0233 81.7864C97.185 82.2558 95.816 83.3705 95.0142 85.1111C94.6035 85.9716 94.4861 86.5583 94.4275 88.0446C94.2906 91.0954 95.1315 93.5009 96.9503 95.3197C98.2019 96.5713 99.3166 97.0602 100.92 97.0602C104.773 97.0602 107.706 92.9533 107.452 87.9468C107.296 85.0524 106.122 83.1554 103.893 82.158C102.798 81.6886 100.236 81.4931 99.0233 81.7864Z" fill="white" fill-opacity="0.5"/>
<path d="M34.7403 98.8203C30.4183 99.3092 27.3674 100.365 25.6073 101.988C23.9841 103.475 23.9841 103.455 24.0037 111.024C24.0037 115.952 24.0623 117.751 24.2384 117.966C24.8642 118.768 25.4118 118.944 27.2501 118.944H29.0689V113.586C29.0689 108.775 29.108 108.188 29.4209 107.816C29.9685 107.151 30.8485 107.093 31.533 107.66L32.1002 108.149L32.1588 113.547L32.2175 118.944H38.5539H44.8902L44.9489 113.566C45.0076 108.325 45.0076 108.188 45.4378 107.758C45.9854 107.21 47.0806 107.191 47.6477 107.699C48.0193 108.032 48.0389 108.266 48.0389 113.507V118.944H49.8576C52.048 118.944 52.7911 118.612 53.104 117.438C53.3778 116.48 53.3778 106.252 53.1236 104.844C52.8498 103.397 52.048 102.204 50.7964 101.343C47.7846 99.2701 40.666 98.1554 34.7403 98.8203Z" fill="white" fill-opacity="0.5"/>
<path d="M97.9079 98.7421C91.6889 99.3483 87.9145 101.011 86.6824 103.67C86.2913 104.511 86.2717 104.942 86.213 110.554C86.1348 117.301 86.213 117.947 87.2104 118.553C87.7189 118.866 88.1883 118.944 89.655 118.944H91.4542V113.507C91.4542 108.266 91.4738 108.032 91.8454 107.699C92.4125 107.191 93.5077 107.21 94.0553 107.758C94.4855 108.188 94.4855 108.325 94.5442 113.566L94.6029 118.944H100.939H107.276L107.334 113.547L107.393 108.149L107.96 107.66C108.645 107.093 109.525 107.151 110.092 107.816C110.385 108.188 110.424 108.775 110.424 113.586V118.944H112.204C114.042 118.944 114.59 118.788 115.157 118.084C115.47 117.712 115.509 117.028 115.509 111.063C115.509 103.709 115.489 103.631 114.179 102.243C113.26 101.284 112.38 100.737 110.913 100.189C107.784 99.0159 101.8 98.3509 97.9079 98.7421Z" fill="white" fill-opacity="0.5"/>
</svg>
