<svg width="140" height="140" viewBox="0 0 140 140" fill="none" xmlns="http://www.w3.org/2000/svg">
<path d="M35.3308 28.3434C31.9202 29.2518 29.2563 31.9771 28.3481 35.4291C27.884 37.1652 27.884 102.855 28.3481 104.591C29.2563 108.083 31.9404 110.788 35.4115 111.697C36.461 111.959 40.6586 111.999 70.0222 111.999C106.449 111.999 104.431 112.06 106.792 110.869C108.225 110.142 110.001 108.386 110.768 106.973C112.08 104.51 111.999 106.811 111.999 70.0099C111.999 40.6374 111.959 36.4385 111.696 35.3887C110.788 31.9165 108.084 29.2316 104.593 28.3232C102.877 27.8791 37.0058 27.8992 35.3308 28.3434ZM51.9601 54.2437C52.4848 54.4859 55.1285 56.9891 59.6693 61.5514C67.1161 69.0611 67.0354 68.94 66.6923 70.7569C66.5712 71.423 65.6429 72.4324 59.5684 78.5491C52.1417 85.9781 51.6775 86.3616 50.2043 86.079C48.4082 85.7358 47.2579 84.141 47.5202 82.3444C47.6615 81.4561 47.8633 81.1937 53.3324 75.7027L59.0033 70.0099L53.4333 64.3979C47.5808 58.5032 47.2377 58.059 47.5 56.6258C47.7019 55.5558 48.3678 54.6676 49.2962 54.2638C50.3658 53.7793 50.9308 53.7592 51.9601 54.2437ZM91.1317 76.9947C92.2013 77.782 92.5242 78.428 92.5242 79.6998C92.5242 80.9716 92.2013 81.6176 91.1317 82.4049C90.5868 82.8087 90.3245 82.8289 80.1532 82.8894C73.1907 82.9298 69.4773 82.8894 68.9728 82.7279C66.9345 82.1425 66.1474 79.3365 67.5399 77.6609C68.5692 76.4497 68.327 76.4699 79.9514 76.5304C90.3245 76.5708 90.5868 76.5708 91.1317 76.9947Z" fill="white"/>
</svg>
