<svg width="140" height="140" viewBox="0 0 140 140" fill="none" xmlns="http://www.w3.org/2000/svg">
<path d="M68.172 20.1184C67.6509 20.2019 66.7128 20.4941 66.0875 20.7446C65.4621 20.9951 55.0392 26.1509 42.9487 32.1835C18.8302 44.2486 20.0184 43.5598 20.0184 45.4593C20.0184 47.3588 18.6843 46.5865 43.5324 59.0273C59.792 67.1473 66.5669 70.4454 67.4424 70.6332C69.0892 70.9672 71.4865 70.9255 72.8623 70.5289C73.4877 70.3619 84.0565 65.206 96.3554 59.09C113.887 50.3647 118.848 47.8181 119.286 47.2962C120.078 46.336 120.203 45.4176 119.703 44.2486L119.265 43.3093L96.7724 32.0374C84.39 25.8378 73.7587 20.6194 73.1542 20.4315C71.7783 20.0349 69.4228 19.8679 68.172 20.1184Z" fill="white"/>
<path d="M27.731 64.3502C24.1247 66.1871 20.9353 67.9196 20.6643 68.2118C20.2891 68.6085 20.1432 69.0468 20.0807 69.84C19.9139 72.0109 18.2462 71.0507 43.4696 83.5959C55.9145 89.7746 66.6083 94.9931 67.2545 95.1809C68.7137 95.5984 71.9657 95.494 73.4249 94.9722C75.03 94.4086 118.639 72.5745 119.16 72.0735C120.161 71.1342 120.286 69.506 119.411 68.2745C119.119 67.8779 117.097 66.7507 112.323 64.3502L105.632 60.9895L90.706 68.4206C82.4928 72.491 75.2801 75.9769 74.6548 76.1648C71.4028 77.0624 67.9008 76.9998 64.8573 75.9561C64.0234 75.6847 56.8317 72.1988 48.8478 68.2327C40.8638 64.2667 34.3391 61.0312 34.3183 61.0521C34.3183 61.0521 31.3374 62.5341 27.731 64.3502Z" fill="white" fill-opacity="0.5"/>
<path d="M27.7313 88.9814C24.125 90.8183 20.9356 92.5299 20.6646 92.8431C19.935 93.6363 19.8099 95.2018 20.4353 96.2038C20.8522 96.8926 22.7492 97.8737 43.3239 108.123C55.6854 114.26 66.2542 119.457 66.817 119.645C67.5675 119.896 68.5264 120 70.1524 120C72.2578 119.979 72.5913 119.917 74.113 119.29C75.0303 118.915 85.5365 113.717 97.4603 107.726C113.991 99.4183 119.223 96.6839 119.557 96.2455C120.12 95.4523 120.099 93.8033 119.536 93.01C119.244 92.6134 117.097 91.4236 112.365 89.0231L105.611 85.6207L90.6854 93.0518C73.9671 101.401 74.113 101.339 69.8814 101.339C66.0041 101.318 66.0041 101.318 49.39 93.0727C41.1768 89.0023 34.4228 85.6624 34.3811 85.6833C34.3394 85.6833 31.3376 87.1654 27.7313 88.9814Z" fill="white" fill-opacity="0.2"/>
</svg>
