<svg width="140" height="140" viewBox="0 0 140 140" fill="none" xmlns="http://www.w3.org/2000/svg">
<path d="M66.312 30.3351C65.7982 30.5138 55.3444 36.4778 43.0813 43.6033C26.9763 52.9626 20.6772 56.7152 20.4091 57.162C19.7614 58.1895 19.8954 59.351 20.7219 60.2222C21.392 60.9146 61.4201 84.3463 65.1951 86.2449C67.1385 87.2501 69.6626 87.4511 71.6059 86.781C73.3258 86.2003 116.437 61.1603 117.352 60.2222C117.866 59.6637 118.067 59.2617 118.067 58.7032C118.067 57.6981 117.687 56.8716 117.017 56.4472C114.627 54.8836 72.5217 30.6031 71.7176 30.3351C70.4444 29.8883 67.5629 29.8883 66.312 30.3351Z" fill="white"/>
<path d="M114.226 68.4422L111.143 70.2516V81.9562V93.6609L110.495 94.2193C110.115 94.532 109.557 95.3362 109.222 96.0063C108.708 97.0785 108.641 97.4135 108.731 98.7761C109.155 104.651 116.705 106.17 119.475 100.92C120.234 99.4686 120.167 97.2348 119.296 95.6712C118.939 95.0235 118.403 94.331 118.135 94.1523L117.621 93.8173V80.2139C117.621 72.731 117.554 66.6106 117.464 66.6329C117.353 66.6329 115.901 67.4594 114.226 68.4422Z" fill="white"/>
<path d="M36.1344 83.2741L36.2014 91.0698L36.9162 92.5217C37.3183 93.3258 38.0554 94.398 38.5915 94.9118C39.5073 95.7829 55.5454 105.254 59.5437 107.264C62.872 108.939 66.3566 109.654 70.2432 109.431C73.2141 109.275 75.6265 108.649 78.1953 107.398C81.9926 105.567 98.4774 95.8946 99.4826 94.9118C100.019 94.398 100.756 93.3258 101.158 92.5217L101.873 91.0698L101.94 83.2964L102.007 75.5231L101.493 75.8358C99.5496 77.0867 75.9169 90.7124 74.8223 91.2261C71.3601 92.8567 66.915 92.9014 63.4974 91.3378C62.5369 90.8911 38.2117 76.8633 36.5811 75.8135L36.0674 75.4784L36.1344 83.2741Z" fill="white" fill-opacity="0.5"/>
</svg>
