<svg width="140" height="140" viewBox="0 0 140 140" fill="none" xmlns="http://www.w3.org/2000/svg">
<path fill-rule="evenodd" clip-rule="evenodd" d="M75.2171 26.4947C72.1978 24.5018 68.2809 24.5018 65.2616 26.4947L56.3972 32.3456C55.4355 32.9804 54.3612 33.4254 53.2323 33.6566L42.827 35.7874C39.2828 36.5132 36.5132 39.2828 35.7874 42.827L33.6566 53.2323C33.4254 54.3612 32.9804 55.4355 32.3456 56.3972L26.4947 65.2616C24.5018 68.2809 24.5018 72.1978 26.4947 75.2171L32.3456 84.0815C32.9804 85.0432 33.4254 86.1175 33.6566 87.2464L35.7874 97.6517C36.5132 101.196 39.2828 103.966 42.827 104.691L53.2323 106.822C54.3612 107.053 55.4355 107.498 56.3972 108.133L65.2616 113.984C68.2809 115.977 72.1978 115.977 75.2171 113.984L84.0815 108.133C85.0432 107.498 86.1175 107.053 87.2464 106.822L97.6517 104.691C101.196 103.966 103.966 101.196 104.691 97.6517L106.822 87.2464C107.053 86.1175 107.498 85.0432 108.133 84.0815L113.984 75.2171C115.977 72.1978 115.977 68.2809 113.984 65.2616L108.133 56.3972C107.498 55.4355 107.053 54.3612 106.822 53.2323L104.691 42.827C103.966 39.2828 101.196 36.5132 97.6517 35.7874L87.2464 33.6566C86.1175 33.4254 85.0432 32.9804 84.0815 32.3456L75.2171 26.4947ZM91.4674 59.1922C92.639 58.0206 92.639 56.1211 91.4674 54.9496C90.2958 53.778 88.3963 53.778 87.2248 54.9496L63.6098 78.5645L53.5486 68.5033C52.377 67.3317 50.4775 67.3317 49.306 68.5033C48.1344 69.6749 48.1344 71.5744 49.306 72.746L61.4885 84.9285L63.6098 87.0498L65.7311 84.9285L91.4674 59.1922Z" fill="white"/>
</svg>
